<svg width="353" height="194" viewBox="0 0 353 194" fill="none" xmlns="http://www.w3.org/2000/svg">
<path d="M184.5 103.3H181.1C180.4 103.3 179.9 102.7 180 102L180.7 97.8999H170.5C169.8 97.8999 169.1 98.4999 169 99.2999L168.1 104.6C167.9 105.5 168.5 106 169.1 106C169.8 106 170.2 105.5 170.3 104.8L170.9 101.4C171 100.7 171.6 100.1 172.2 100.1C172.8 100.1 173.1 100.7 173 101.4L170.2 117.7C170.1 118.4 169.4 119 168.7 119H167.2C166.5 119 165.8 119.6 165.7 120.3L165.4 122.4C165.3 123.1 165.9 123.7 166.5 123.7C167.1 123.7 167.6 123.2 167.7 122.6C167.8 122 168.5 121.5 169.2 121.5H170.4C171.4 121.5 172.3 120.7 172.5 119.7L173.7 113.3C173.8 112.6 174.5 112 175.2 112H178.9C179.6 112 180.1 112.6 180 113.3L178.6 122.3C178.5 123.1 179 123.8 179.9 123.8H182.2C182.9 123.8 183.6 123.5 183.6 122.6C183.6 122.2 183.3 121.6 182.3 121.6C181.6 121.6 181.1 121 181.2 120.3L182.6 111.4C182.8 110.4 182.1 109.6 181.1 109.6H180.1C179.4 109.6 178.9 109 179 108.3L179.4 105.6H184.4C185.1 105.6 185.7 105.1 185.7 104.4C185.8 103.8 185.2 103.3 184.5 103.3Z" fill="#27E1B5"/>
<path d="M175.2 96.3999H179.9C180.6 96.3999 180.9 95.8999 180.6 95.1999L179 91.4999C178.7 90.8999 178.1 90.7999 177.7 91.3999L174.7 95.3999C174.3 95.8999 174.5 96.3999 175.2 96.3999Z" fill="#27E1B5"/>
<path d="M136 119.8C136.7 119.4 137.3 119.7 137.3 120.6V122.7C137.3 123.5 136.7 123.9 136 123.5L134.2 122.4C133.5 122 133.5 121.3 134.2 120.9L136 119.8Z" fill="#27E1B5"/>
<path d="M143.3 107C144.1 106.6 144.7 106.9 144.7 107.8V111C144.7 111.9 144.1 112.3 143.3 111.8L140.6 110.2C139.8 109.8 139.8 109 140.6 108.6L143.3 107Z" fill="#27E1B5"/>
<path d="M150.5 94.2001C151.3 93.7001 152 94.1001 152 95.1001V99.3001C152 100.3 151.3 100.7 150.5 100.2L146.9 98.1001C146.1 97.6001 146.1 96.8001 146.9 96.3001L150.5 94.2001Z" fill="#27E1B5"/>
<path d="M157.8 81.4001C158.7 80.9001 159.4 81.3001 159.4 82.3001V87.5001C159.4 88.5001 158.7 89.0001 157.8 88.4001L153.3 85.8001C152.4 85.3001 152.4 84.4001 153.3 83.9001L157.8 81.4001Z" fill="#27E1B5"/>
<path d="M165.1 68.6C166.1 68.1 166.8 68.5 166.8 69.6V75.8C166.8 76.9 166 77.4 165.1 76.8L159.7 73.7C158.7 73.2 158.7 72.3 159.7 71.7L165.1 68.6Z" fill="#27E1B5"/>
<path d="M204.6 143.4C203.9 143 203.9 142.3 204.6 141.9L208.3 139.8C209 139.4 209.6 139.7 209.6 140.6V144.9C209.6 145.7 209 146.1 208.3 145.7L204.6 143.4Z" fill="#27E1B5"/>
<path d="M189.7 143.6C188.9 143.2 188.9 142.4 189.7 142L193.8 139.6C194.6 139.2 195.2 139.5 195.2 140.4V145.2C195.2 146.1 194.6 146.5 193.8 146L189.7 143.6Z" fill="#27E1B5"/>
<path d="M174.7 143.7C173.9 143.2 173.9 142.4 174.7 141.9L179.3 139.3C180.1 138.8 180.8 139.2 180.8 140.2V145.5C180.8 146.5 180.1 146.9 179.3 146.4L174.7 143.7Z" fill="#27E1B5"/>
<path d="M159.8 143.8C158.9 143.3 158.9 142.4 159.8 141.9L164.8 139C165.7 138.5 166.4 138.9 166.4 139.9V145.6C166.4 146.6 165.7 147.1 164.8 146.5L159.8 143.8Z" fill="#27E1B5"/>
<path d="M144.8 143.9C143.8 143.3 143.8 142.4 144.8 141.9L150.2 138.8C151.2 138.3 151.9 138.7 151.9 139.8V146C151.9 147.1 151.1 147.5 150.2 147L144.8 143.9Z" fill="#27E1B5"/>
<path d="M189.2 72.7999C189.2 73.5999 188.6 73.9999 187.9 73.5999L186.1 72.4999C185.4 72.0999 185.4 71.3999 186.1 70.9999L187.9 69.8999C188.6 69.4999 189.2 69.7999 189.2 70.6999V72.7999Z" fill="#27E1B5"/>
<path d="M196.5 85.5999C196.5 86.4999 195.9 86.8999 195.1 86.3999L192.4 84.7999C191.6 84.3999 191.6 83.5999 192.4 83.1999L195.1 81.5999C195.9 81.1999 196.5 81.4999 196.5 82.3999V85.5999Z" fill="#27E1B5"/>
<path d="M203.9 98.4998C203.9 99.4998 203.2 99.8998 202.4 99.3998L198.8 97.2998C198 96.7998 198 95.9998 198.8 95.4998L202.4 93.3998C203.2 92.8998 203.9 93.2998 203.9 94.2998V98.4998Z" fill="#27E1B5"/>
<path d="M211.3 111.4C211.3 112.4 210.6 112.9 209.7 112.3L205.2 109.7C204.3 109.2 204.3 108.3 205.2 107.8L209.7 105.2C210.6 104.7 211.3 105.1 211.3 106.1V111.4Z" fill="#27E1B5"/>
<path d="M218.6 124.2C218.6 125.3 217.8 125.8 216.9 125.2L211.5 122.1C210.5 121.6 210.5 120.7 211.5 120.1L216.9 117C217.9 116.4 218.6 116.9 218.6 118V124.2Z" fill="#27E1B5"/>
<path d="M238.738 157.92C238.444 158.788 237.982 159.74 237.506 160.398C237.814 160.58 238.346 160.944 238.598 161.154C239.088 160.44 239.662 159.292 240.012 158.284L238.738 157.92ZM242.028 151.886C241.888 152.404 241.636 153.118 241.426 153.622H239.41L240.418 153.342C240.348 152.95 240.166 152.348 239.956 151.886H242.028ZM244.142 157.472V156.072H241.972V154.994H244.366V153.622H242.91C243.12 153.188 243.33 152.642 243.54 152.11L242.406 151.886H244.156V150.528H242.154C241.986 150.052 241.734 149.478 241.524 149.016L239.858 149.422C239.998 149.758 240.152 150.15 240.278 150.528H237.884V151.886H239.774L238.626 152.166C238.794 152.6 238.962 153.202 239.032 153.622H237.674V154.994H240.362V156.072H237.758V157.472H240.362V162.12H241.972V157.472H244.142ZM250.61 153.748H246.382V151.55C247.754 151.298 249.21 150.962 250.358 150.5L249.084 149.282C248.062 149.758 246.368 150.192 244.842 150.472V155.456C244.842 156.744 244.8 158.256 244.408 159.6C244.17 159.068 243.736 158.326 243.358 157.766L242.266 158.354C242.658 158.998 243.134 159.894 243.358 160.454L244.352 159.838C244.198 160.328 243.988 160.79 243.722 161.196C244.072 161.364 244.73 161.896 245.01 162.19C246.2 160.398 246.382 157.514 246.382 155.456V155.288H247.684V162.162H249.308V155.288H250.61V153.748ZM258.184 151.018H259.738V149.842H258.184V149.156H256.868V151.746H258.184V151.018ZM254.726 151.746H256.014V149.156H254.726V149.856H252.962V151.032H254.726V151.746ZM261.376 155.344H263.868V156.184H261.376V155.344ZM261.376 153.216H263.868V154.042H261.376V153.216ZM261.376 151.074H263.868V151.9H261.376V151.074ZM255.23 159.88H256.49V160.51H255.23V159.88ZM256.49 157.22H255.23V156.688H256.49V157.22ZM256.49 158.844H255.23V158.256H256.49V158.844ZM254.334 152.824H255.202V153.818H254.334V152.824ZM257.596 152.824H258.464V153.776H257.596V152.824ZM264.302 160.748C264.148 160.748 264.134 160.706 264.134 160.37V157.654H265.324V149.604H259.976V157.654H260.914C260.802 158.928 260.494 159.992 259.444 160.734V160.51H257.764V159.88H259.332V158.844H257.764V158.256H259.234V157.22H257.764V156.688H259.514V155.582H257.778C257.694 155.274 257.512 154.924 257.33 154.63H259.402V151.97H256.7V154.63H257.12L256.266 154.966C256.378 155.148 256.476 155.372 256.56 155.582H255.356C255.468 155.344 255.566 155.12 255.664 154.882L255.02 154.644H256.154V151.984H253.438V154.644H254.572C254.166 155.666 253.522 156.688 252.892 157.388C253.088 157.668 253.424 158.298 253.536 158.536C253.704 158.354 253.886 158.13 254.054 157.878V162.232H255.23V161.63H259.444V161.546C259.626 161.784 259.794 162.05 259.892 162.246C261.642 161.238 262.132 159.642 262.3 157.654H262.874V160.398C262.874 161.644 263.084 162.064 264.092 162.064H264.764C265.59 162.064 265.926 161.56 266.024 159.53C265.674 159.418 265.114 159.208 264.876 158.984C264.848 160.594 264.806 160.748 264.596 160.748H264.302ZM270.098 151.382C270.294 151.998 270.434 152.782 270.462 153.328L271.19 153.09C271.148 152.558 270.966 151.718 270.756 151.088L270.098 151.284V150.696H271.274V153.734H270.098V151.382ZM273.486 151.312L272.814 151.074C272.716 151.62 272.478 152.446 272.282 152.992V150.696H273.486V151.312ZM272.282 153.734V153.118L272.87 153.342C273.052 152.95 273.262 152.334 273.486 151.76V153.734H272.282ZM274.942 157.416H272.506V156.716H274.746V155.456H272.506V154.854H274.774V149.576H268.852V154.854H271.036V155.456H268.88V156.716H271.036V157.416H268.6V158.676H274.942V157.416ZM269.426 162.008C269.818 161.336 270.07 160.272 270.252 159.418L269.146 159.012C268.992 159.838 268.656 160.888 268.264 161.532L269.426 162.008ZM270.504 159.418C270.616 160.188 270.672 161.196 270.644 161.868L271.708 161.742C271.722 161.07 271.652 160.076 271.512 159.306L270.504 159.418ZM271.918 159.39C272.17 160.132 272.408 161.098 272.464 161.728L273.486 161.518C273.416 160.888 273.164 159.936 272.912 159.208L271.918 159.39ZM279.366 160.16H276.776V157.234H279.366V160.16ZM281.438 153.58V152.04H278.722V149.17H277.098V155.722H275.264V161.098C275.096 160.496 274.704 159.642 274.298 159.012L273.318 159.362C273.71 160.062 274.102 161 274.242 161.63L275.264 161.224V162.204H276.776V161.672H279.366V162.162H280.962V155.722H278.722V153.58H281.438Z" fill="#3B8C8F"/>
<path d="M225.026 91.078C224.592 92.198 223.948 93.164 223.15 93.976C222.338 93.164 221.708 92.184 221.232 91.078H225.026ZM226.076 89.398L225.754 89.468H218.964V87.508H227.896V85.856H217.284V89.762C217.284 91.974 217.186 95.096 215.646 97.21C216.038 97.406 216.752 97.882 217.06 98.19C218.418 96.272 218.838 93.402 218.936 91.078H219.468C220.056 92.66 220.826 94.004 221.82 95.096C220.77 95.824 219.566 96.342 218.236 96.678C218.586 97.056 219.006 97.756 219.202 98.218C220.672 97.756 222.002 97.14 223.136 96.3C224.284 97.154 225.656 97.798 227.336 98.218C227.588 97.742 228.078 97.028 228.456 96.664C226.916 96.342 225.6 95.81 224.522 95.096C225.768 93.78 226.706 92.086 227.238 89.888L226.076 89.398ZM235.414 89.692H238.046V90.924H235.414V89.692ZM235.414 87.172H238.046V88.348H235.414V87.172ZM242.218 88.348H239.656V87.172H242.218V88.348ZM242.218 90.924H239.656V89.692H242.218V90.924ZM237.248 93.276C238.256 93.808 239.432 94.676 239.978 95.278L241.168 94.144C240.594 93.556 239.516 92.842 238.578 92.366H243.87V85.73H233.846V92.366H238.228L237.248 93.276ZM233.944 97.42C234.616 96.496 235.092 95.082 235.428 93.892L233.916 93.346C233.622 94.494 233.09 95.754 232.446 96.594L233.944 97.42ZM238.368 96.454C237.668 96.454 237.542 96.398 237.542 95.978V93.696H235.862V95.992C235.862 97.476 236.324 97.966 238.172 97.966H240.496C241.952 97.966 242.442 97.462 242.624 95.474C242.176 95.376 241.462 95.11 241.126 94.858C241.042 96.244 240.93 96.454 240.356 96.454H238.368ZM242.078 93.878C242.834 94.97 243.548 96.398 243.786 97.336L245.41 96.65C245.13 95.67 244.346 94.312 243.562 93.262L242.078 93.878Z" fill="#16D0A3"/>
<path d="M170.46 165.48C170.208 165.844 169.914 166.166 169.578 166.46C168.948 166.11 168.304 165.788 167.716 165.48H170.46ZM171.454 164.332L171.202 164.374H166.652V165.48H166.988L166.428 166.152C167.03 166.474 167.688 166.852 168.374 167.23C167.646 167.594 166.792 167.86 165.882 168.014C166.148 168.322 166.442 168.854 166.582 169.218C167.744 168.952 168.822 168.56 169.704 168.014C170.46 168.462 171.132 168.896 171.608 169.232L172.448 168.126C172.028 167.846 171.454 167.496 170.824 167.146C171.496 166.488 172.014 165.676 172.364 164.654L171.454 164.332ZM172.182 157.612C171.804 158.06 171.16 158.648 170.628 159.068C170.376 158.872 170.124 158.662 169.886 158.438C170.418 158.06 171.02 157.556 171.594 157.08L170.404 156.226C170.068 156.618 169.55 157.122 169.088 157.514C168.766 157.122 168.5 156.674 168.29 156.198L166.96 156.59C167.632 158.088 168.57 159.334 169.788 160.3H167.114V161.294C167.114 161.924 166.988 162.596 166.12 163.17V160.384H164.286C165.42 159.53 166.358 158.438 166.918 157.066L165.896 156.562L165.616 156.632H161.962V157.934H164.72C164.482 158.256 164.202 158.55 163.908 158.83C163.502 158.522 162.914 158.186 162.438 157.948L161.486 158.83C161.906 159.068 162.41 159.39 162.788 159.67C162.06 160.132 161.262 160.51 160.436 160.748C160.73 161.042 161.136 161.602 161.332 161.966C161.766 161.812 162.186 161.63 162.606 161.42V161.644H164.636V162.624H162.158C162.032 163.73 161.808 165.116 161.612 166.026H164.552C164.454 166.978 164.328 167.426 164.16 167.58C164.034 167.706 163.88 167.72 163.656 167.72C163.348 167.72 162.662 167.706 161.962 167.65C162.214 168.028 162.41 168.602 162.438 169.036C163.18 169.064 163.908 169.064 164.286 169.022C164.776 168.994 165.112 168.882 165.406 168.56C165.77 168.196 165.938 167.3 166.092 165.41C166.106 165.214 166.12 164.822 166.12 164.822H163.208C163.25 164.514 163.292 164.178 163.348 163.856H166.12V163.436C166.4 163.688 166.806 164.094 166.96 164.332C168.122 163.59 168.458 162.54 168.5 161.56H169.788V162.372C169.788 163.506 170.012 163.982 171.188 163.982H172.056C172.35 163.982 172.672 163.968 172.868 163.898C172.812 163.576 172.784 163.1 172.756 162.764C172.574 162.82 172.238 162.834 172.042 162.834H171.356C171.174 162.834 171.146 162.722 171.146 162.386V161.182C171.65 161.448 172.168 161.672 172.742 161.854C172.966 161.448 173.386 160.86 173.736 160.538C173.022 160.342 172.35 160.076 171.734 159.754C172.252 159.39 172.854 158.942 173.386 158.466L172.182 157.612ZM185.524 162.232H188.1V163.072H185.524V162.232ZM185.524 160.202H188.1V161.014H185.524V160.202ZM185.524 158.158H188.1V158.97H185.524V158.158ZM182.584 164.92C183.214 165.508 184.04 166.362 184.432 166.866L185.636 165.858C185.3 165.466 184.698 164.878 184.152 164.374H189.696V156.842H184.012V164.248L183.732 163.996L182.584 164.92ZM179.91 164.542H181.492V161.616C181.996 162.078 182.514 162.582 182.836 162.932L183.704 161.602C183.382 161.336 182.052 160.384 181.492 160.062V159.544H183.466V158.13H181.492V156.156H179.91V158.13H177.614V159.544H179.644C179.098 160.762 178.188 161.98 177.264 162.666C177.6 162.932 178.09 163.45 178.328 163.814C178.902 163.31 179.434 162.61 179.91 161.784V164.542ZM178.888 168.448C179.378 167.636 179.784 166.39 180.064 165.396L178.58 164.808C178.342 165.802 177.866 166.95 177.362 167.692L178.888 168.448ZM183.116 167.468C182.36 167.468 182.22 167.412 182.22 166.992V165.102H180.568V167.02C180.568 168.476 181.058 168.938 182.962 168.938H185.482C187.022 168.938 187.484 168.448 187.694 166.446C187.232 166.362 186.532 166.124 186.196 165.858C186.112 167.272 186.014 167.468 185.356 167.468H183.116ZM187.302 165.298C187.848 166.236 188.618 167.468 188.954 168.21L190.508 167.412C190.13 166.684 189.318 165.494 188.758 164.626L187.302 165.298Z" fill="#16D0A3"/>
<path d="M118.162 85.94H111.358V87.522H118.162V85.94ZM108.67 85.142C107.998 86.122 106.668 87.382 105.506 88.124C105.8 88.446 106.22 89.118 106.43 89.482C107.76 88.558 109.272 87.116 110.28 85.8L108.67 85.142ZM109.202 88.166C108.306 89.748 106.78 91.372 105.352 92.352C105.688 92.702 106.248 93.458 106.486 93.794C106.864 93.486 107.242 93.136 107.634 92.758V98.232H109.3V90.924C109.86 90.224 110.378 89.496 110.798 88.782L109.202 88.166ZM118.512 89.79H110.77V91.372H114.9V96.244C114.9 96.454 114.802 96.51 114.55 96.51C114.298 96.524 113.374 96.524 112.576 96.482C112.8 96.972 113.01 97.686 113.08 98.176C114.326 98.176 115.222 98.148 115.81 97.896C116.426 97.644 116.594 97.182 116.594 96.286V91.372H118.512V89.79ZM126.716 95.32H129.25V94.144H126.716V93.598H129.194V89.272H126.716V88.726H129.404V89.818H130.678C130.58 92.324 130.244 94.326 129.152 95.838C128.34 95.908 127.514 95.978 126.716 96.034V95.32ZM124.112 92.562V91.932H125.204V92.562H124.112ZM127.808 91.932V92.562H126.716V91.932H127.808ZM126.716 90.938V90.322H127.808V90.938H126.716ZM124.112 90.322H125.204V90.938H124.112V90.322ZM132.302 88.292C132.33 87.368 132.33 86.388 132.33 85.366H130.734C130.734 86.402 130.734 87.368 130.72 88.292H129.404V87.522H126.716V86.836C127.626 86.738 128.494 86.612 129.236 86.458L128.508 85.212C126.968 85.548 124.546 85.786 122.474 85.898C122.628 86.22 122.782 86.738 122.838 87.074C123.594 87.06 124.392 87.018 125.204 86.962V87.522H122.446V88.726H125.204V89.272H122.796V93.598H125.204V94.144H122.74V95.32H125.204V96.16C124.126 96.23 123.146 96.3 122.362 96.356L122.558 97.756C124.07 97.63 126.086 97.42 128.102 97.21C128.466 97.518 128.872 97.98 129.082 98.316C131.434 96.454 132.078 93.57 132.26 89.818H133.52C133.436 94.34 133.296 96.048 133.002 96.426C132.876 96.608 132.736 96.664 132.526 96.664C132.26 96.664 131.728 96.65 131.112 96.594C131.392 97.056 131.574 97.728 131.602 98.19C132.274 98.204 132.918 98.218 133.338 98.134C133.8 98.036 134.122 97.896 134.444 97.434C134.892 96.79 135.004 94.76 135.13 89.034C135.13 88.838 135.144 88.292 135.144 88.292H132.302Z" fill="#16D0A3"/>
<path d="M155.738 34.92C155.444 35.788 154.982 36.74 154.506 37.398C154.814 37.58 155.346 37.944 155.598 38.154C156.088 37.44 156.662 36.292 157.012 35.284L155.738 34.92ZM159.028 28.886C158.888 29.404 158.636 30.118 158.426 30.622H156.41L157.418 30.342C157.348 29.95 157.166 29.348 156.956 28.886H159.028ZM161.142 34.472V33.072H158.972V31.994H161.366V30.622H159.91C160.12 30.188 160.33 29.642 160.54 29.11L159.406 28.886H161.156V27.528H159.154C158.986 27.052 158.734 26.478 158.524 26.016L156.858 26.422C156.998 26.758 157.152 27.15 157.278 27.528H154.884V28.886H156.774L155.626 29.166C155.794 29.6 155.962 30.202 156.032 30.622H154.674V31.994H157.362V33.072H154.758V34.472H157.362V39.12H158.972V34.472H161.142ZM167.61 30.748H163.382V28.55C164.754 28.298 166.21 27.962 167.358 27.5L166.084 26.282C165.062 26.758 163.368 27.192 161.842 27.472V32.456C161.842 33.744 161.8 35.256 161.408 36.6C161.17 36.068 160.736 35.326 160.358 34.766L159.266 35.354C159.658 35.998 160.134 36.894 160.358 37.454L161.352 36.838C161.198 37.328 160.988 37.79 160.722 38.196C161.072 38.364 161.73 38.896 162.01 39.19C163.2 37.398 163.382 34.514 163.382 32.456V32.288H164.684V39.162H166.308V32.288H167.61V30.748ZM173.994 26.828H170.41V28.046H173.994V26.828ZM173.532 35.256H179.594V35.886H173.532V35.256ZM173.532 33.716H179.594V34.318H173.532V33.716ZM173.532 32.176H179.594V32.778H173.532V32.176ZM181.288 36.866V31.182H171.922V36.866H173.938C172.958 37.356 171.46 37.776 170.116 38.028C170.48 38.308 171.068 38.924 171.348 39.246C172.762 38.854 174.568 38.154 175.716 37.426L174.498 36.866H178.446L177.592 37.552C178.978 38.056 180.434 38.742 181.232 39.204L182.73 38.308C181.904 37.902 180.532 37.342 179.244 36.866H181.288ZM178.866 28.48V28.2H180.42C180.266 28.494 180.084 28.788 179.93 29.012L181.218 29.488C181.666 28.928 182.142 28.046 182.506 27.276L181.372 26.926L181.12 26.996H177.144C177.228 26.8 177.312 26.59 177.382 26.38L175.926 26.058C175.604 27.01 175.03 27.934 174.288 28.55C174.638 28.746 175.254 29.152 175.52 29.404C175.87 29.082 176.206 28.662 176.5 28.2H177.34V28.41C177.34 28.928 176.99 29.558 174.316 29.838V28.984H170.088V30.258H173.798C174.022 30.552 174.246 30.902 174.358 31.168C176.71 30.902 177.872 30.356 178.404 29.74C179.286 30.51 180.504 30.958 182.072 31.154C182.268 30.748 182.66 30.146 182.996 29.824C181.106 29.726 179.622 29.376 178.866 28.634V28.48ZM190.598 28.452H188.134L188.988 27.948C188.792 27.43 188.386 26.66 188.05 26.086L186.86 26.688C187.154 27.22 187.504 27.92 187.686 28.452H185.46V29.768H190.598V28.452ZM190.094 31.658V30.398H186.034V31.658H190.094ZM188.806 35.536V37.104H187.322V35.536H188.806ZM190.122 34.206H186.048V39.036H187.322V38.448H190.122V34.206ZM186.034 33.534H190.122V32.274H186.034V33.534ZM190.78 26.856V28.438H192.152V32.134H190.584V33.688H192.152V39.204H193.706V33.688H195.05V32.134H193.706V28.438H195.4C195.386 33.646 195.4 38.49 196.73 39.05C197.598 39.414 198.312 38.98 198.522 36.936C198.284 36.684 197.878 36.026 197.654 35.592C197.612 36.488 197.542 37.398 197.472 37.37C196.954 37.202 196.94 31.462 197.066 26.856H190.78Z" fill="#3B8C8F"/>
<path d="M80.344 141.844V140.164H67.87V141.844H72.924V152.176H74.716V145.526C76.13 146.338 77.726 147.36 78.538 148.074L79.77 146.548C78.706 145.68 76.508 144.476 74.996 143.72L74.716 144.042V141.844H80.344ZM83.074 144.644V146.45H95.954V144.644H83.074ZM111.13 144.742V143.174H106.118V141.83H110.15V140.262H106.118V139.156H104.326V143.174H102.24V140.052H100.546V143.174H98.628V144.742H104.13V148.83H105.18C103.416 149.768 101.204 150.3 98.558 150.622C98.908 151.056 99.244 151.728 99.398 152.204C104.676 151.434 108.33 149.838 110.43 145.988L108.806 145.246C108.106 146.59 107.14 147.626 105.908 148.41V144.742H111.13ZM101.652 145.148C101.036 146.142 99.902 147.15 98.852 147.794C99.216 148.074 99.832 148.704 100.098 149.026C101.218 148.214 102.464 146.94 103.262 145.694L101.652 145.148ZM72.462 155.94H65.658V157.522H72.462V155.94ZM62.97 155.142C62.298 156.122 60.968 157.382 59.806 158.124C60.1 158.446 60.52 159.118 60.73 159.482C62.06 158.558 63.572 157.116 64.58 155.8L62.97 155.142ZM63.502 158.166C62.606 159.748 61.08 161.372 59.652 162.352C59.988 162.702 60.548 163.458 60.786 163.794C61.164 163.486 61.542 163.136 61.934 162.758V168.232H63.6V160.924C64.16 160.224 64.678 159.496 65.098 158.782L63.502 158.166ZM72.812 159.79H65.07V161.372H69.2V166.244C69.2 166.454 69.102 166.51 68.85 166.51C68.598 166.524 67.674 166.524 66.876 166.482C67.1 166.972 67.31 167.686 67.38 168.176C68.626 168.176 69.522 168.148 70.11 167.896C70.726 167.644 70.894 167.182 70.894 166.286V161.372H72.812V159.79ZM79.616 165.32H82.15V164.144H79.616V163.598H82.094V159.272H79.616V158.726H82.304V159.818H83.578C83.48 162.324 83.144 164.326 82.052 165.838C81.24 165.908 80.414 165.978 79.616 166.034V165.32ZM77.012 162.562V161.932H78.104V162.562H77.012ZM80.708 161.932V162.562H79.616V161.932H80.708ZM79.616 160.938V160.322H80.708V160.938H79.616ZM77.012 160.322H78.104V160.938H77.012V160.322ZM85.202 158.292C85.23 157.368 85.23 156.388 85.23 155.366H83.634C83.634 156.402 83.634 157.368 83.62 158.292H82.304V157.522H79.616V156.836C80.526 156.738 81.394 156.612 82.136 156.458L81.408 155.212C79.868 155.548 77.446 155.786 75.374 155.898C75.528 156.22 75.682 156.738 75.738 157.074C76.494 157.06 77.292 157.018 78.104 156.962V157.522H75.346V158.726H78.104V159.272H75.696V163.598H78.104V164.144H75.64V165.32H78.104V166.16C77.026 166.23 76.046 166.3 75.262 166.356L75.458 167.756C76.97 167.63 78.986 167.42 81.002 167.21C81.366 167.518 81.772 167.98 81.982 168.316C84.334 166.454 84.978 163.57 85.16 159.818H86.42C86.336 164.34 86.196 166.048 85.902 166.426C85.776 166.608 85.636 166.664 85.426 166.664C85.16 166.664 84.628 166.65 84.012 166.594C84.292 167.056 84.474 167.728 84.502 168.19C85.174 168.204 85.818 168.218 86.238 168.134C86.7 168.036 87.022 167.896 87.344 167.434C87.792 166.79 87.904 164.76 88.03 159.034C88.03 158.838 88.044 158.292 88.044 158.292H85.202ZM103.458 159.006V157.382H97.718L98.684 156.962C98.474 156.43 98.054 155.59 97.676 154.96L96.038 155.576C96.318 156.136 96.654 156.836 96.878 157.382H90.97V159.006H94.498C94.358 161.96 94.092 165.11 90.732 166.902C91.18 167.252 91.698 167.826 91.95 168.274C94.47 166.832 95.506 164.648 95.982 162.31H100.392C100.196 164.816 99.944 166.006 99.58 166.328C99.384 166.482 99.202 166.51 98.894 166.51C98.474 166.51 97.494 166.496 96.542 166.412C96.864 166.86 97.102 167.56 97.13 168.05C98.082 168.092 99.006 168.092 99.552 168.036C100.182 167.98 100.63 167.84 101.05 167.378C101.624 166.776 101.918 165.222 102.17 161.428C102.212 161.204 102.226 160.7 102.226 160.7H96.22C96.29 160.126 96.318 159.566 96.36 159.006H103.458ZM113.958 159.972C113.65 160.28 113.286 160.532 112.88 160.756C112.138 160.602 111.354 160.448 110.584 160.322C110.71 160.21 110.822 160.098 110.934 159.972H113.958ZM118.83 162.296C117.78 161.932 116.408 161.54 114.896 161.176C115.288 160.854 115.652 160.448 115.96 159.972H118.816V158.67H116.618C116.688 158.502 116.758 158.32 116.814 158.138L115.19 157.816C115.092 158.11 114.98 158.404 114.854 158.67H112.152C112.418 158.362 112.642 158.054 112.866 157.76L111.858 157.452H116.996V158.222H118.606V156.08H113.608C113.44 155.758 113.244 155.408 113.062 155.142L111.298 155.492C111.396 155.674 111.494 155.87 111.592 156.08H106.622V158.222H108.162V157.452H111.2C110.948 157.844 110.654 158.25 110.318 158.67H106.384V159.972H109.17C108.778 160.406 108.372 160.798 108.008 161.12C108.834 161.246 109.618 161.386 110.402 161.54C109.254 161.736 107.896 161.848 106.286 161.89C106.524 162.24 106.734 162.758 106.86 163.262C109.618 163.108 111.704 162.814 113.272 162.17C114.868 162.562 116.254 162.968 117.248 163.374L118.83 162.296ZM118.97 163.71H113.398V162.744H111.732V163.71H106.272V165.082H109.324C108.68 165.81 107.434 166.482 106.244 166.874C106.636 167.14 107.308 167.658 107.644 167.98C108.834 167.448 110.206 166.58 111.018 165.628L109.38 165.082H111.732V168.218H113.398V165.082H115.008L114.056 165.88C115.274 166.51 116.842 167.476 117.584 168.148L118.886 166.986C118.158 166.398 116.828 165.628 115.736 165.082H118.97V163.71Z" fill="#3B8C8F"/>
<path d="M167 58L172.3 50.5V58L177.8 50.5V58L183 50.5V58L187.9 50.5" stroke="#3B8C8F" stroke-width="3" stroke-miterlimit="10" stroke-linecap="round" stroke-linejoin="round"/>
<path d="M222.7 143.5C225.185 143.5 227.2 141.485 227.2 139C227.2 136.515 225.185 134.5 222.7 134.5C220.215 134.5 218.2 136.515 218.2 139C218.2 141.485 220.215 143.5 222.7 143.5Z" stroke="#3B8C8F" stroke-width="4" stroke-miterlimit="10" stroke-linecap="round"/>
<path d="M230 146.3L226.1 142.4" stroke="#3B8C8F" stroke-width="4" stroke-miterlimit="10" stroke-linecap="round"/>
<path d="M125 145.8C125.3 146.1 125.6 146.3 126 146.5V146.6V147.6C126 148.9 127.1 150 128.4 150C129.7 150 130.8 148.9 130.8 147.6V146.6V146.5C131.2 146.3 131.5 146 131.8 145.8C132.7 144.9 133.2 143.7 133.2 142.4C133.2 141.2 132.7 139.9 131.8 139C130.9 138.1 129.7 137.6 128.4 137.6C127.1 137.6 125.9 138.1 125 139C124.1 139.9 123.6 141.1 123.6 142.4C123.6 143.7 124.1 144.9 125 145.8Z" fill="#3B8C8F"/>
<path d="M128.3 135.1C129.2 135.1 130 134.3 130 133.4V129.9C130 129 129.2 128.2 128.3 128.2C127.4 128.2 126.6 129 126.6 129.9V133.4C126.6 134.3 127.3 135.1 128.3 135.1Z" fill="#3B8C8F"/>
<path d="M135.3 137.5C135.7 137.5 136.1 137.3 136.5 137L138.5 135.1C139.2 134.5 139.2 133.4 138.6 132.7C138 132 136.9 132 136.2 132.6L134.2 134.5C133.5 135.1 133.5 136.2 134.1 136.9C134.4 137.3 134.8 137.5 135.3 137.5Z" fill="#3B8C8F"/>
<path d="M121.2 137.5C120.8 137.5 120.4 137.3 120 137L118 135.1C117.3 134.5 117.3 133.4 117.9 132.7C118.6 132 119.7 132 120.4 132.6L122.4 134.5C123.1 135.1 123.1 136.2 122.5 136.9C122.1 137.3 121.7 137.5 121.2 137.5Z" fill="#3B8C8F"/>
</svg>
